<?xml version="1.0" standalone="no"?><!DOCTYPE svg PUBLIC "-//W3C//DTD SVG 1.1//EN" "http://www.w3.org/Graphics/SVG/1.1/DTD/svg11.dtd"><svg t="1580810405172" class="icon" viewBox="0 0 1024 1024" version="1.1" xmlns="http://www.w3.org/2000/svg" p-id="4478" width="200" height="200" xmlns:xlink="http://www.w3.org/1999/xlink"><defs><style type="text/css"></style></defs><path d="M705.422222 27.306667H300.373333c-61.44 0-111.502222 50.062222-111.502222 111.502222v735.004444c0 61.44 50.062222 111.502222 111.502222 111.502223H705.422222c61.44 0 111.502222-50.062222 111.502222-111.502223V138.808889c0-61.44-50.062222-111.502222-111.502222-111.502222zM466.488889 63.715556h72.817778c9.102222 0 18.204444 9.102222 18.204444 18.204444s-9.102222 18.204444-18.204444 18.204444h-72.817778c-9.102222 0-18.204444-9.102222-18.204445-18.204444s9.102222-18.204444 18.204445-18.204444z m36.408889 876.088888c-25.031111 0-47.786667-20.48-47.786667-47.786666 0-25.031111 20.48-47.786667 47.786667-47.786667 25.031111 0 47.786667 20.48 47.786666 47.786667 0 27.306667-20.48 47.786667-47.786666 47.786666z m238.933333-152.462222h-477.866667v-20.48h477.866667v20.48z" fill="" p-id="4479"></path></svg>