<?xml version="1.0" standalone="no"?><!DOCTYPE svg PUBLIC "-//W3C//DTD SVG 1.1//EN" "http://www.w3.org/Graphics/SVG/1.1/DTD/svg11.dtd"><svg t="1584084774038" class="icon" viewBox="0 0 1024 1024" version="1.1" xmlns="http://www.w3.org/2000/svg" p-id="2052" xmlns:xlink="http://www.w3.org/1999/xlink" width="200" height="200"><defs><style type="text/css"></style></defs><path d="M896.1 115H128c-35.3 0-63.9 28.6-64 63.9V689c-0.1 35.3 28.5 64 63.8 64H896.1c35.3 0 63.9-28.6 63.9-63.9V179c0-35.3-28.6-64-63.9-64z m-25.6 546.1H153.7V202h716.8v459.1zM64.1 840.2c0 35.3 28.6 63.9 63.9 64h768.2c35.3 0 63.9-28.6 63.9-63.9v-56.5H64l0.1 56.4z m409.1-13.1h77.7c9.6 0 17.1 7.6 17.1 16.8-0.1 9.3-7.7 16.9-17 16.8h-77.8c-9.3 0.2-17-7.3-17.2-16.6v-0.2c0-9.2 7.6-16.8 17.2-16.8z" p-id="2053"></path></svg>